<svg version="1.2" xmlns="http://www.w3.org/2000/svg" viewBox="0 0 208 222" width="208" height="222">
	<title>762803_7-ai</title>
	<defs>
		<clipPath clipPathUnits="userSpaceOnUse" id="cp1">
			<path d="m203.36 113.47c0 54.74-44.37 99.1-99.1 99.1-54.73 0-99.1-44.36-99.1-99.1 0-54.73 44.37-99.1 99.1-99.1 54.73 0 99.1 44.37 99.1 99.1z"/>
		</clipPath>
	</defs>
	<style>
		.s0 { fill: #ff602d } 
		.s1 { fill: #ffc78c } 
		.s2 { fill: #00976f } 
		.s3 { fill: #fbfefd } 
		.s4 { fill: #332114 } 
		.s5 { opacity: .4;fill: #ffffff } 
		.s6 { fill: #231f20 } 
	</style>
	<g id="object">
		<g id="&lt;Group&gt;">
			<g id="&lt;Group&gt;">
				<path id="&lt;Path&gt;" class="s0" d="m203.4 113.5c0 54.7-44.4 99.1-99.1 99.1-54.8 0-99.1-44.4-99.1-99.1 0-54.8 44.3-99.1 99.1-99.1 54.7 0 99.1 44.3 99.1 99.1z"/>
				<g id="&lt;Clip Group&gt;" clip-path="url(#cp1)">
					<g id="&lt;Group&gt;">
						<path id="&lt;Path&gt;" class="s1" d="m122.4 141c10.4-5.4 18.6-15.4 22.4-27.1q0.9 0.3 1.8 0.3c3.8 0 7-4.7 7-10.5 0-5.6-3.1-10.3-6.8-10.4-2.9-20.7-20.2-36.6-41.1-36.6-20.9 0-38.2 16-41 36.7q-0.5-0.1-1.1-0.1c-3.8 0-7 4.6-7 10.4 0 5.8 3.2 10.5 7 10.5 1 0 2-0.3 2.9-0.9 3.7 11.8 11.8 22 22.2 27.5v15.2c-19.7 2.8-20.6 4.2-20.6 4.2l1.7 5.5 35.8 19.7 39.1-19.7c0 0-0.8-6.3-22.3-9.6z"/>
						<path id="&lt;Path&gt;" class="s2" d="m128.3 157.1c0 0-7.8 13.6-24 13.8-16.2-0.2-24.1-13.8-24.1-13.8-29.6 0-48.3 34.6-48.3 34.6l72.4 35.5 72.4-35.5c0 0-18.8-34.6-48.4-34.6z"/>
						<path id="&lt;Path&gt;" class="s3" d="m80.2 157.1c0 0 9 20.1 11 20.4 1.9 0.2 9.4-6.9 9.4-6.9z"/>
						<path id="&lt;Path&gt;" class="s3" d="m128.3 157.1c0 0-8.5 20.1-10.4 20.4-1.9 0.2-9.1-7.1-9.1-7.1z"/>
						<g id="&lt;Group&gt;">
							<path id="&lt;Path&gt;" class="s4" d="m68.5 113.2c4-1-1.9-27.1 4.1-33.5 6-6.3 15.2 2.1 34.8 2.4 19.5 0.2 22.6-8.4 30-2.3 7.4 6.1-0.1 24.7 4 33.2 1.5 3.1 3.4-19.6 3.4-19.6 0 0 3.2-0.3 4.9 1 8-16.5 4.7-19.4 2.7-25.2-2.7-8-11.1-10-2-19.6 7.9-8.3-9.2-10.3-43.8-4.9-17 2.7-33.9-5.7-45.2 9.5-9.5 12.7-5.9 20.5 0.5 38.4 0.9-1 2.1 1.1 2.3 1.1 2.1 5.7 3.5 19.7 4.3 19.5z"/>
						</g>
						<g id="&lt;Group&gt;">
							<g id="&lt;Group&gt;">
								<path id="&lt;Path&gt;" class="s5" d="m110.9 89.7h31.4c0 0 1.4 20.5-16.8 20.5-18.3 0-14.6-20.5-14.6-20.5z"/>
								<path id="&lt;Compound Path&gt;" fill-rule="evenodd" class="s6" d="m125.5 111.2c-5.3 0-9.4-1.7-12.1-4.9-5.3-6.3-3.6-16.3-3.5-16.8l0.2-0.7h33.1l0.1 0.8c0 0.5 0.6 10.3-5.2 16.6-3.1 3.3-7.3 5-12.6 5zm-13.8-20.5c-0.3 2.4-0.7 9.7 3.2 14.3 2.3 2.8 5.9 4.2 10.6 4.2 4.7 0 8.5-1.4 11.2-4.3 4.3-4.6 4.7-11.8 4.7-14.2z"/>
								<path id="&lt;Path&gt;" class="s5" d="m100.7 89.7h-31.5c0 0-1.4 20.5 16.9 20.5 18.2 0 14.6-20.5 14.6-20.5z"/>
								<path id="&lt;Compound Path&gt;" fill-rule="evenodd" class="s6" d="m73.5 106.2c-5.9-6.3-5.3-16.1-5.2-16.6v-0.8h33.2l0.1 0.7c0.1 0.5 1.8 10.5-3.5 16.8-2.7 3.2-6.7 4.9-12 4.9-5.3 0-9.6-1.7-12.6-5zm-3.3-15.5c0 2.4 0.3 9.6 4.7 14.2 2.7 2.9 6.4 4.3 11.2 4.3 4.7 0 8.2-1.4 10.6-4.2 3.9-4.6 3.4-11.9 3.2-14.3z"/>
								<path id="&lt;Path&gt;" class="s6" d="m110.6 96h-9.8v-3.5h9.8z"/>
							</g>
							<path id="&lt;Path&gt;" class="s6" d="m149.1 95.9l-6.5 0.7v-3.3l8.1-1.3z"/>
							<path id="&lt;Path&gt;" class="s6" d="m63 95.4l6.2 0.9v-3.3l-7.7-1.5z"/>
						</g>
					</g>
				</g>
			</g>
		</g>
	</g>
</svg>